<svg xmlns="http://www.w3.org/2000/svg" xmlns:xlink="http://www.w3.org/1999/xlink" width="800" zoomAndPan="magnify" viewBox="0 0 600 337.499995" height="450" preserveAspectRatio="xMidYMid meet" version="1.0"><path fill="#ffffff" d="M 91.132812 196.171875 C 83.554688 186.363281 74.640625 181.457031 64.378906 181.457031 C 55.910156 181.457031 48.777344 184.578125 42.980469 191.265625 C 37.183594 197.0625 34.507812 204.640625 34.507812 213.113281 C 34.507812 221.582031 37.183594 229.15625 42.53125 234.953125 C 47.878906 241.195312 55.011719 244.3125 63.484375 244.3125 C 74.628906 244.3125 83.988281 239.40625 91.566406 229.15625 L 92.007812 249.210938 C 83.089844 255.007812 74.171875 258.128906 64.8125 258.128906 C 51.882812 258.128906 41.179688 253.671875 32.269531 245.199219 C 23.796875 236.730469 19.339844 226.035156 19.339844 213.105469 C 19.339844 200.175781 23.796875 189.914062 32.71875 181 C 41.636719 172.082031 52.332031 168.074219 64.8125 168.074219 C 74.621094 168.074219 83.539062 170.746094 91.113281 176.542969 L 91.113281 196.15625 Z M 91.132812 196.171875 " fill-opacity="1" fill-rule="evenodd"/><path fill="#ffffff" d="M 149.535156 181.457031 C 158.007812 181.898438 164.699219 184.578125 170.046875 190.375 C 174.953125 196.164062 177.628906 203.746094 177.628906 212.214844 C 177.628906 221.132812 175.402344 228.707031 170.496094 234.953125 C 165.148438 241.195312 158.457031 244.3125 149.535156 244.3125 L 149.535156 258.136719 C 160.6875 257.695312 169.601562 252.789062 176.734375 244.3125 L 176.734375 255.910156 L 191.886719 255.910156 L 191.886719 170.3125 L 176.734375 170.3125 L 176.734375 181.898438 C 169.152344 173.433594 160.234375 168.527344 149.535156 168.078125 Z M 129.035156 190.816406 C 134.390625 184.578125 141.074219 181.457031 149.097656 181.457031 L 149.535156 181.457031 L 149.535156 168.078125 L 147.753906 168.078125 C 135.269531 168.078125 125.015625 172.539062 117.433594 181.457031 C 110.300781 189.921875 106.730469 200.625 106.730469 213.113281 C 106.730469 225.601562 110.300781 235.839844 117.433594 244.3125 C 125.464844 253.679688 135.269531 258.136719 147.304688 258.136719 L 149.53125 258.136719 L 149.53125 244.3125 C 140.613281 244.3125 133.925781 241.195312 128.578125 234.503906 C 124.121094 228.707031 121.894531 221.132812 121.894531 212.214844 C 121.894531 203.296875 124.121094 196.613281 129.027344 190.816406 Z M 129.035156 190.816406 " fill-opacity="1" fill-rule="evenodd"/><path fill="#ffffff" d="M 216.859375 106.113281 L 231.566406 106.113281 L 231.566406 255.910156 L 216.859375 255.910156 Z M 216.859375 106.113281 " fill-opacity="1" fill-rule="nonzero"/><path fill="#ffffff" d="M 257.425781 106.113281 L 272.140625 106.113281 L 272.140625 255.910156 L 257.425781 255.910156 Z M 257.425781 106.113281 " fill-opacity="1" fill-rule="nonzero"/><path fill="#ffffff" d="M 339.460938 181.457031 C 347.929688 181.898438 354.617188 184.578125 359.964844 190.375 C 364.871094 196.164062 367.546875 203.746094 367.546875 212.214844 C 367.546875 221.132812 364.871094 228.707031 360.410156 234.953125 C 355.058594 241.195312 348.371094 244.3125 339.460938 244.3125 L 339.460938 258.136719 L 341.6875 258.136719 C 353.726562 258.136719 363.535156 253.679688 371.554688 244.3125 C 379.136719 235.839844 382.699219 225.144531 382.699219 213.113281 C 382.699219 201.078125 379.128906 190.375 371.554688 181.457031 C 363.980469 172.539062 353.726562 168.078125 341.6875 168.078125 L 339.460938 168.078125 Z M 318.949219 190.816406 C 324.296875 184.578125 330.988281 181.457031 339.011719 181.457031 L 339.460938 181.457031 L 339.460938 168.078125 C 329.203125 168.527344 319.839844 172.988281 312.265625 181.898438 L 312.265625 106.113281 L 297.558594 106.113281 L 297.558594 255.910156 L 312.265625 255.910156 L 312.710938 244.3125 C 318.957031 252.789062 327.867188 257.695312 339.46875 258.136719 L 339.46875 244.3125 C 330.550781 244.3125 323.863281 241.195312 318.507812 234.503906 C 314.050781 228.269531 311.824219 221.132812 311.824219 212.214844 C 311.824219 203.296875 314.050781 196.613281 318.957031 190.816406 Z M 318.949219 190.816406 " fill-opacity="1" fill-rule="evenodd"/><path fill="#ffffff" d="M 443.777344 181.457031 C 452.695312 181.457031 459.828125 184.578125 465.625 190.816406 C 470.972656 197.0625 474.09375 204.195312 474.09375 213.113281 C 474.09375 222.03125 470.972656 229.15625 465.625 234.953125 C 459.828125 241.195312 452.695312 244.3125 443.777344 244.3125 L 443.777344 258.136719 C 456.257812 258.136719 466.960938 253.679688 475.433594 244.761719 C 484.351562 235.839844 488.804688 225.59375 488.804688 213.113281 C 488.804688 200.628906 484.351562 189.921875 475.875 181.457031 C 466.957031 172.539062 456.257812 168.078125 443.777344 168.078125 Z M 422.378906 190.816406 C 428.175781 184.578125 435.308594 181.457031 443.777344 181.457031 L 443.777344 168.078125 C 431.746094 168.078125 421.039062 172.539062 412.121094 181.007812 C 403.652344 189.921875 399.191406 200.625 399.191406 213.113281 C 399.191406 225.601562 403.644531 236.289062 412.121094 244.761719 C 421.039062 253.679688 431.738281 258.136719 443.777344 258.136719 L 443.777344 244.3125 C 435.308594 244.3125 428.175781 241.195312 422.378906 235.402344 C 416.582031 229.15625 413.90625 222.023438 413.90625 213.113281 C 413.90625 204.199219 416.582031 196.613281 422.378906 190.816406 Z M 422.378906 190.816406 " fill-opacity="1" fill-rule="evenodd"/><path fill="#ffffff" d="M 495.488281 170.3125 L 513.324219 170.3125 L 535.613281 199.285156 L 557.910156 170.3125 L 576.1875 170.3125 L 544.980469 210.429688 L 580.640625 255.910156 L 562.367188 255.910156 L 535.613281 221.132812 L 508.867188 255.910156 L 490.140625 255.910156 L 526.253906 210.429688 Z M 495.488281 170.3125 " fill-opacity="1" fill-rule="evenodd"/><path fill="#ffcb0c" d="M 436.195312 49.9375 L 385.824219 100.757812 L 400.976562 115.472656 C 400.976562 115.472656 432.632812 83.371094 443.777344 72.671875 C 454.472656 83.371094 486.578125 115.472656 486.578125 115.472656 L 501.292969 100.757812 L 443.777344 42.355469 Z M 436.195312 49.9375 " fill-opacity="1" fill-rule="evenodd"/></svg>